<?xml version="1.0" encoding="utf-8"?>
<!-- Generator: Adobe Illustrator 21.0.2, SVG Export Plug-In . SVG Version: 6.00 Build 0)  -->
<svg version="1.1" id="Layer_1" xmlns="http://www.w3.org/2000/svg" xmlns:xlink="http://www.w3.org/1999/xlink" x="0px" y="0px"
	 viewBox="0 0 90 90.7" style="enable-background:new 0 0 90 90.7;" xml:space="preserve">
<style type="text/css">
	.st0{fill:none;stroke:#000000;stroke-width:3;stroke-miterlimit:10;}
	.st1{fill:none;}
</style>
<g>
	<polygon class="st0" points="15.2,34.8 35.2,14.8 55.2,14.8 75.2,35.1 75.2,54.8 55.2,74.9 35.2,74.9 15.2,54.8 	"/>
	<line class="st0" x1="48.1" y1="1.9" x2="35.2" y2="14.8"/>
	<line class="st0" x1="75.2" y1="14.8" x2="55.2" y2="14.8"/>
	<line class="st0" x1="88" y1="47.7" x2="74.9" y2="34.8"/>
	<line class="st0" x1="75.2" y1="74.9" x2="75.2" y2="54.8"/>
	<line class="st0" x1="41" y1="89" x2="55.2" y2="74.9"/>
	<line class="st0" x1="15.2" y1="74.9" x2="35.2" y2="74.9"/>
	<line class="st0" x1="2.3" y1="41.9" x2="15.5" y2="55.1"/>
	<line class="st0" x1="15.2" y1="14.8" x2="15.2" y2="34.8"/>
	<line class="st0" x1="55.2" y1="24.8" x2="75.2" y2="24.8"/>
	<line class="st0" x1="65.2" y1="54.8" x2="65.2" y2="74.9"/>
	<line class="st0" x1="35.2" y1="64.8" x2="15.2" y2="64.8"/>
	<line class="st0" x1="25.2" y1="34.8" x2="25.2" y2="14.8"/>
	<line class="st0" x1="41" y1="22.4" x2="55.2" y2="8.3"/>
	<line class="st0" x1="35" y1="82" x2="49.2" y2="67.8"/>
	<line class="st0" x1="67.9" y1="40.6" x2="82" y2="54.8"/>
	<line class="st0" x1="8.5" y1="34.8" x2="22.6" y2="49"/>
	
		<rect x="12.5" y="14.1" transform="matrix(0.7071 0.7071 -0.7071 0.7071 43.8673 -18.2676)" class="st1" width="63" height="59.5"/>
</g>
<rect x="0" y="0.7" class="st1" width="90" height="90"/>
</svg>
